# xmcd CD database file
# 
# Track frame offsets:
# 	150
# 	18970
# 	41185
# 	58105
# 	70700
# 	85192
# 	99201
# 	110614
# 	129529
# 	147549
# 	161121
# 	176639
# 	193883
# 	208083
# 	227593
# 	246012
# 	263915
# 	279412
# 	305180
# 
# Disc length: 4386 seconds
# 
# Submitted via: Nero 5.0
# 
# Revision: 1
# Processed by: cddbd v1.4b41PL1 Copyright (c) Steve Scherf et al.
#
DISCID=1b112013
DTITLE=Vince gill - I still belive in you
DYEAR=1900
DGENRE=
TTITLE0=Unknown (Unknown)
TTITLE1=Unknown (Unknown)
TTITLE2=Unknown (Unknown)
TTITLE3=Unknown (Unknown)
TTITLE4=Unknown (Unknown)
TTITLE5=Unknown (Unknown)
TTITLE6=Unknown (Unknown)
TTITLE7=Unknown (Unknown)
TTITLE8=Unknown (Unknown)
TTITLE9=Unknown (Unknown)
TTITLE10=Unknown (Unknown)
TTITLE11=Unknown (Unknown)
TTITLE12=Unknown (Unknown)
TTITLE13=Unknown (Unknown)
TTITLE14=Unknown (Unknown)
TTITLE15=Unknown (Unknown)
TTITLE16=Unknown (Unknown)
TTITLE17=Unknown (Unknown)
TTITLE18=Unknown (Unknown)
EXTD=
EXTT0=
EXTT1=
EXTT2=
EXTT3=
EXTT4=
EXTT5=
EXTT6=
EXTT7=
EXTT8=
EXTT9=
EXTT10=
EXTT11=
EXTT12=
EXTT13=
EXTT14=
EXTT15=
EXTT16=
EXTT17=
EXTT18=
PLAYORDER=
